0
SECTION
2
HEADER
9
$INSUNITS
70
4
9
$ACADVER
1
AC1014
9
$HANDSEED
5
FFFF
0
ENDSEC
0
SECTION
2
TABLES
0
TABLE
2
VPORT
5
8
100
AcDbSymbolTable
0
ENDTAB
0
TABLE
2
LTYPE
5
5
100
AcDbSymbolTable
0
LTYPE
5
14
100
AcDbSymbolTableRecord
100
AcDbLinetypeTableRecord
2
BYBLOCK
70
0
0
LTYPE
5
15
100
AcDbSymbolTableRecord
100
AcDbLinetypeTableRecord
2
BYLAYER
70
0
0
ENDTAB
0
TABLE
2
LAYER
5
2
100
AcDbSymbolTable
70
2
0
LAYER
5
50
100
AcDbSymbolTableRecord
100
AcDbLayerTableRecord
2
0
70
0
6
CONTINUOUS
0
ENDTAB
0
TABLE
2
STYLE
5
3
100
AcDbSymbolTable
70
1
0
STYLE
5
11
100
AcDbSymbolTableRecord
100
AcDbTextStyleTableRecord
2
STANDARD
70
0
0
ENDTAB
0
TABLE
2
VIEW
5
6
100
AcDbSymbolTable
70
0
0
ENDTAB
0
TABLE
2
UCS
5
7
100
AcDbSymbolTable
70
0
0
ENDTAB
0
TABLE
2
APPID
5
9
100
AcDbSymbolTable
70
2
0
APPID
5
12
100
AcDbSymbolTableRecord
100
AcDbRegAppTableRecord
2
ACAD
70
0
0
ENDTAB
0
TABLE
2
DIMSTYLE
5
A
100
AcDbSymbolTable
70
1
0
ENDTAB
0
TABLE
2
BLOCK_RECORD
5
1
100
AcDbSymbolTable
70
1
0
BLOCK_RECORD
5
1F
100
AcDbSymbolTableRecord
100
AcDbBlockTableRecord
2
*MODEL_SPACE
0
BLOCK_RECORD
5
1B
100
AcDbSymbolTableRecord
100
AcDbBlockTableRecord
2
*PAPER_SPACE
0
ENDTAB
0
ENDSEC
0
SECTION
2
BLOCKS
0
BLOCK
5
20
100
AcDbEntity
100
AcDbBlockBegin
2
*MODEL_SPACE
0
ENDBLK
5
21
100
AcDbEntity
100
AcDbBlockEnd
0
BLOCK
5
1C
100
AcDbEntity
100
AcDbBlockBegin
2
*PAPER_SPACE
0
ENDBLK
5
1D
100
AcDbEntity
100
AcDbBlockEnd
0
ENDSEC
0
SECTION
2
ENTITIES
0
LWPOLYLINE
5
100
100
AcDbEntity
8
0
100
AcDbPolyline
90
68
70
1
43
0.0
10
0
20
67.5
10
3.0000000000000004
20
67.5
10
3.0000000000000004
20
47.625
10
4.9500000000000002
20
47.625
10
4.9500000000000002
20
48.875
10
7.5999999999999996
20
48.875
10
7.5999999999999996
20
47.625
10
10.250000000000002
20
47.625
10
10.250000000000002
20
44.375
10
7.5999999999999996
20
44.375
10
7.5999999999999996
20
43.125
10
4.9500000000000002
20
43.125
10
4.9500000000000002
20
44.375
10
3.0000000000000004
20
44.375
10
3.0000000000000004
20
24.5
10
0
20
24.5
10
0
20
2.9999999999999982
10
16.5
20
3.0000000000000004
10
16.5
20
6.0000000000000009
10
31.375
20
6.0000000000000009
10
31.375
20
7.9500000000000002
10
30.125
20
7.9500000000000002
10
30.125
20
10.600000000000001
10
31.375
20
10.600000000000001
10
31.375
20
13.250000000000002
10
34.625
20
13.250000000000002
10
34.625
20
10.600000000000001
10
35.875
20
10.600000000000001
10
35.875
20
7.9500000000000002
10
34.625
20
7.9500000000000002
10
34.625
20
6.0000000000000009
10
49.5
20
6.0000000000000009
10
49.5
20
3.0000000000000004
10
66
20
3.0000000000000004
10
66
20
24.5
10
63.000000000000007
20
24.5
10
63.000000000000007
20
44.375
10
61.050000000000004
20
44.375
10
61.050000000000004
20
43.125
10
58.399999999999999
20
43.125
10
58.399999999999999
20
44.375
10
55.75
20
44.375
10
55.75
20
47.625
10
58.399999999999999
20
47.625
10
58.399999999999999
20
48.875
10
61.050000000000004
20
48.875
10
61.050000000000004
20
47.625
10
63.000000000000007
20
47.625
10
63.000000000000007
20
67.5
10
66
20
67.5
10
66
20
89
10
49.5
20
89
10
49.5
20
86
10
34.625
20
86
10
34.625
20
84.049999999999997
10
35.875
20
84.049999999999997
10
35.875
20
81.400000000000006
10
34.625
20
81.400000000000006
10
34.625
20
78.75
10
31.375
20
78.75
10
31.375
20
81.400000000000006
10
30.125
20
81.400000000000006
10
30.125
20
84.049999999999997
10
31.375
20
84.049999999999997
10
31.375
20
86
10
16.5
20
86
10
16.5
20
89
10
0
20
89
0
LWPOLYLINE
5
101
100
AcDbEntity
8
0
100
AcDbPolyline
90
34
70
1
43
0.0
10
72
20
89
10
72
20
67.5
10
69
20
67.5
10
69
20
47.625
10
72.25
20
47.625
10
72.25
20
46.000000000000007
10
72.25
20
44.375
10
69
20
44.375
10
69
20
24.5
10
72
20
24.5
10
72
20
2.9999999999999982
10
85.5
20
3.0000000000000004
10
85.5
20
6.0000000000000009
10
100.37500000000001
20
6.0000000000000009
10
103.625
20
6.0000000000000009
10
118.50000000000001
20
6.0000000000000009
10
118.50000000000001
20
3.0000000000000004
10
132
20
3.0000000000000004
10
132
20
24.5
10
135
20
24.5
10
135
20
44.375
10
131.75
20
44.375
10
131.75
20
46.000000000000007
10
131.75
20
47.625
10
135
20
47.625
10
135
20
67.5
10
132
20
67.5
10
132
20
89
10
118.50000000000001
20
89
10
118.50000000000001
20
86
10
103.625
20
86
10
100.37500000000001
20
86
10
85.5
20
86
10
85.5
20
89
0
LINE
5
102
100
AcDbEntity
8
0
100
AcDbLine
10
72.25
20
46.000000000000007
30
0
11
72.25
21
46.000000000000007
31
0
0
LINE
5
103
100
AcDbEntity
8
0
100
AcDbLine
10
131.75
20
46.000000000000007
30
0
11
131.75
21
46.000000000000007
31
0
0
LWPOLYLINE
5
104
100
AcDbEntity
8
0
100
AcDbPolyline
90
34
70
1
43
0.0
10
141
20
66
10
141
20
52.5
10
138
20
52.5
10
138
20
37.625
10
141.25
20
37.625
10
141.25
20
36
10
141.25
20
34.375
10
138
20
34.375
10
138
20
19.5
10
141
20
19.5
10
141
20
6.0000000000000009
10
154.5
20
6.0000000000000009
10
154.5
20
3.0000000000000004
10
169.375
20
3.0000000000000004
10
172.625
20
3.0000000000000004
10
187.5
20
3.0000000000000004
10
187.5
20
6.0000000000000009
10
201
20
6.0000000000000009
10
201
20
19.5
10
204.00000000000003
20
19.5
10
204.00000000000003
20
34.375
10
200.75000000000003
20
34.375
10
200.75000000000003
20
36
10
200.75000000000003
20
37.625
10
204.00000000000003
20
37.625
10
204.00000000000003
20
52.5
10
201
20
52.5
10
201
20
66
10
187.5
20
66
10
187.5
20
69
10
172.625
20
69
10
169.375
20
69
10
154.5
20
69
10
154.5
20
66
0
LINE
5
105
100
AcDbEntity
8
0
100
AcDbLine
10
141.25
20
36
30
0
11
141.25
21
36
31
0
0
LINE
5
106
100
AcDbEntity
8
0
100
AcDbLine
10
171
20
6.25
30
0
11
171
21
6.25
31
0
0
LINE
5
107
100
AcDbEntity
8
0
100
AcDbLine
10
200.75000000000003
20
36
30
0
11
200.75000000000003
21
36
31
0
0
LINE
5
108
100
AcDbEntity
8
0
100
AcDbLine
10
171
20
65.75
30
0
11
171
21
65.75
31
0
0
LWPOLYLINE
5
109
100
AcDbEntity
8
0
100
AcDbPolyline
90
68
70
1
43
0.0
10
0
20
178
10
0
20
156.5
10
3.0000000000000004
20
156.5
10
3.0000000000000004
20
136.625
10
4.9500000000000002
20
136.625
10
4.9500000000000002
20
137.875
10
7.5999999999999996
20
137.875
10
7.5999999999999996
20
136.625
10
10.250000000000002
20
136.625
10
10.250000000000002
20
133.375
10
7.5999999999999996
20
133.375
10
7.5999999999999996
20
132.125
10
4.9500000000000002
20
132.125
10
4.9500000000000002
20
133.375
10
3.0000000000000004
20
133.375
10
3.0000000000000004
20
113.50000000000001
10
0
20
113.50000000000001
10
0
20
92.000000000000014
10
16.5
20
92.000000000000014
10
16.5
20
95
10
31.375
20
95
10
31.375
20
96.950000000000003
10
30.125
20
96.950000000000003
10
30.125
20
99.600000000000009
10
31.375
20
99.600000000000009
10
31.375
20
102.25000000000001
10
34.625
20
102.25000000000001
10
34.625
20
99.600000000000009
10
35.875
20
99.600000000000009
10
35.875
20
96.950000000000003
10
34.625
20
96.950000000000003
10
34.625
20
95
10
49.5
20
95
10
49.5
20
92.000000000000014
10
66
20
92.000000000000014
10
66
20
113.50000000000001
10
63.000000000000007
20
113.50000000000001
10
63.000000000000007
20
133.375
10
61.050000000000004
20
133.375
10
61.050000000000004
20
132.125
10
58.399999999999999
20
132.125
10
58.399999999999999
20
133.375
10
55.75
20
133.375
10
55.75
20
136.625
10
58.399999999999999
20
136.625
10
58.399999999999999
20
137.875
10
61.050000000000004
20
137.875
10
61.050000000000004
20
136.625
10
63.000000000000007
20
136.625
10
63.000000000000007
20
156.5
10
66
20
156.5
10
66
20
178
10
49.5
20
178
10
49.5
20
175
10
34.625
20
175
10
34.625
20
173.05000000000004
10
35.875
20
173.05000000000004
10
35.875
20
170.40000000000003
10
34.625
20
170.40000000000003
10
34.625
20
167.75000000000003
10
31.375
20
167.75000000000003
10
31.375
20
170.40000000000003
10
30.125
20
170.40000000000003
10
30.125
20
173.05000000000004
10
31.375
20
173.05000000000004
10
31.375
20
175
10
16.5
20
175
10
16.5
20
178
0
LWPOLYLINE
5
110
100
AcDbEntity
8
0
100
AcDbPolyline
90
34
70
1
43
0.0
10
72
20
178
10
72
20
156.5
10
69
20
156.5
10
69
20
136.625
10
72.25
20
136.625
10
72.25
20
135
10
72.25
20
133.375
10
69
20
133.375
10
69
20
113.50000000000001
10
72
20
113.50000000000001
10
72
20
92.000000000000014
10
85.5
20
92.000000000000014
10
85.5
20
95
10
100.37500000000001
20
95
10
103.625
20
95
10
118.50000000000001
20
95
10
118.50000000000001
20
92.000000000000014
10
132
20
92.000000000000014
10
132
20
113.50000000000001
10
135
20
113.50000000000001
10
135
20
133.375
10
131.75
20
133.375
10
131.75
20
135
10
131.75
20
136.625
10
135
20
136.625
10
135
20
156.5
10
132
20
156.5
10
132
20
178
10
118.50000000000001
20
178
10
118.50000000000001
20
175
10
103.625
20
175
10
100.37500000000001
20
175
10
85.5
20
175
10
85.5
20
178
0
LINE
5
111
100
AcDbEntity
8
0
100
AcDbLine
10
72.25
20
135
30
0
11
72.25
21
135
31
0
0
LINE
5
112
100
AcDbEntity
8
0
100
AcDbLine
10
131.75
20
135
30
0
11
131.75
21
135
31
0
0
CIRCLE
5
113
100
AcDbEntity
8
0
100
AcDbCircle
10
81.75
20
73.5
30
0
40
1.4999999999999942
210
0
220
0
230
1
0
CIRCLE
5
114
100
AcDbEntity
8
0
100
AcDbCircle
10
81.75
20
56.000000864267349
30
0
40
1.500000000000004
210
0
220
0
230
1
0
CIRCLE
5
115
100
AcDbEntity
8
0
100
AcDbCircle
10
122.25000000000001
20
73.5
30
0
40
1.4999999999999951
210
0
220
0
230
1
0
CIRCLE
5
116
100
AcDbEntity
8
0
100
AcDbCircle
10
122.25000000000001
20
56
30
0
40
1.4999999999999927
210
0
220
0
230
1
0
LWPOLYLINE
5
117
100
AcDbEntity
8
0
100
AcDbPolyline
90
4
70
1
43
0.0
10
89.25
20
72
10
119.75000000000001
20
72
10
119.75000000000001
20
57.499999999999993
10
89.25
20
57.499999999999993
0
CIRCLE
5
118
100
AcDbEntity
8
0
100
AcDbCircle
10
102
20
145
30
0
40
17.499999999999996
210
0
220
0
230
1
0
CIRCLE
5
119
100
AcDbEntity
8
0
100
AcDbCircle
10
82
20
145
30
0
40
1.5000000000000002
210
0
220
0
230
1
0
CIRCLE
5
120
100
AcDbEntity
8
0
100
AcDbCircle
10
122
20
145
30
0
40
1.5000000000000002
210
0
220
0
230
1
0
CIRCLE
5
121
100
AcDbEntity
8
0
100
AcDbCircle
10
53.000000000000007
20
16
30
0
40
2.0000000000000009
210
0
220
0
230
1
0
LWPOLYLINE
5
122
100
AcDbEntity
8
0
100
AcDbPolyline
90
4
70
1
43
0.0
10
26.000000000000007
20
117.99999999999999
10
36.000000000000007
20
117.99999999999999
10
36.000000000000007
20
112
10
26.000000000000007
20
112
0
LWPOLYLINE
5
123
100
AcDbEntity
8
0
100
AcDbPolyline
90
4
70
1
43
0.0
10
25.250000000000004
20
145
10
40.75
20
145
10
40.75
20
124.5
10
25.250000000000004
20
124.5
0
CIRCLE
5
124
100
AcDbEntity
8
0
100
AcDbCircle
10
33
20
147.5
30
0
40
1.25
210
0
220
0
230
1
0
CIRCLE
5
125
100
AcDbEntity
8
0
100
AcDbCircle
10
145.00000216066837
20
60.000000894069672
30
0
40
1.5000000000000002
210
0
220
0
230
1
0
CIRCLE
5
126
100
AcDbEntity
8
0
100
AcDbCircle
10
197.00000293552876
20
60.000000894069672
30
0
40
1.5000000000000002
210
0
220
0
230
1
0
CIRCLE
5
127
100
AcDbEntity
8
0
100
AcDbCircle
10
145.00000216066837
20
11.000000163912773
30
0
40
1.5000000000000002
210
0
220
0
230
1
0
CIRCLE
5
128
100
AcDbEntity
8
0
100
AcDbCircle
10
197.00000293552876
20
11.000000163912773
30
0
40
1.5000000000000002
210
0
220
0
230
1
0
LWPOLYLINE
5
129
100
AcDbEntity
8
0
100
AcDbPolyline
90
34
70
1
43
0.0
10
138.00000000000006
20
89.5
10
141
20
89.5
10
141
20
76
10
154.50000000000003
20
76
10
154.50000000000003
20
73
10
169.375
20
73
10
172.62500000000003
20
73
10
187.5
20
73
10
187.5
20
76
10
201
20
76
10
201
20
89.5
10
204.00000000000006
20
89.5
10
204.00000000000006
20
104.375
10
200.75000000000003
20
104.375
10
200.75000000000003
20
106
10
200.75000000000003
20
107.625
10
204.00000000000006
20
107.625
10
204.00000000000006
20
122.5
10
201
20
122.5
10
201
20
136
10
187.5
20
136
10
187.5
20
139
10
172.62500000000003
20
139
10
169.375
20
139
10
154.50000000000003
20
139
10
154.50000000000003
20
136
10
141
20
136
10
141
20
122.5
10
138.00000000000006
20
122.5
10
138.00000000000006
20
107.625
10
141.25
20
107.625
10
141.25
20
106
10
141.25
20
104.375
10
138.00000000000006
20
104.375
0
LINE
5
130
100
AcDbEntity
8
0
100
AcDbLine
10
171
20
135.75
30
0
11
171
21
135.75
31
0
0
LINE
5
131
100
AcDbEntity
8
0
100
AcDbLine
10
200.75000000000003
20
106
30
0
11
200.75000000000003
21
106
31
0
0
LINE
5
132
100
AcDbEntity
8
0
100
AcDbLine
10
141.25
20
106
30
0
11
141.25
21
106
31
0
0
LINE
5
133
100
AcDbEntity
8
0
100
AcDbLine
10
171
20
76.25
30
0
11
171
21
76.25
31
0
0
LINE
5
134
100
AcDbEntity
8
0
100
AcDbLine
10
171
20
117.5
30
0
11
164.75
21
117.5
31
0
0
LWPOLYLINE
5
135
100
AcDbEntity
8
0
100
AcDbPolyline
90
4
70
1
43
0.0
10
164.75
20
117.5
10
177.25
20
117.5
10
177.25
20
94.5
10
164.75
20
94.5
0
CIRCLE
5
136
100
AcDbEntity
8
0
100
AcDbCircle
10
161.50000000000003
20
97.749999999999986
30
0
40
1.5000000000000002
210
0
220
0
230
1
0
CIRCLE
5
137
100
AcDbEntity
8
0
100
AcDbCircle
10
161.50000000000003
20
114.25
30
0
40
1.5000000000000002
210
0
220
0
230
1
0
CIRCLE
5
138
100
AcDbEntity
8
0
100
AcDbCircle
10
180.50000374019146
20
114.25
30
0
40
1.5000000000000002
210
0
220
0
230
1
0
CIRCLE
5
139
100
AcDbEntity
8
0
100
AcDbCircle
10
180.50000374019146
20
97.749999999999986
30
0
40
1.5000000000000002
210
0
220
0
230
1
0
LINE
5
140
100
AcDbEntity
8
0
100
AcDbLine
10
11.000000149011612
20
165.0000024586916
30
0
11
55.000000834465027
21
165.0000024586916
31
0
0
LINE
5
141
100
AcDbEntity
8
0
100
AcDbLine
10
55.000000834465027
20
163.00000242888927
30
0
11
11.000000149011626
21
163.00000242888927
31
0
0
LINE
5
142
100
AcDbEntity
8
0
100
AcDbLine
10
11.000000149011612
20
160.00000238418579
30
0
11
55.000000834465027
21
160.00000238418579
31
0
0
LINE
5
143
100
AcDbEntity
8
0
100
AcDbLine
10
55.000000834465027
20
158.00000235438347
30
0
11
11.000000149011626
21
158.00000235438347
31
0
0
LINE
5
144
100
AcDbEntity
8
0
100
AcDbLine
10
11.000000149011612
20
155.00000230967999
30
0
11
55.000000834465027
21
155.00000230967999
31
0
0
LINE
5
145
100
AcDbEntity
8
0
100
AcDbLine
10
55.000000834465027
20
153.00000227987766
30
0
11
11.000000149011626
21
153.00000227987766
31
0
0
ARC
5
146
100
AcDbEntity
8
0
100
AcDbCircle
10
11.000000149011633
20
164.0000024586916
30
0
40
1.0000000000000142
210
0
220
0
230
1
100
AcDbArc
50
90.000000000001208
51
180
0
ARC
5
147
100
AcDbEntity
8
0
100
AcDbCircle
10
11.000000149011635
20
164.00000242888927
30
0
40
1.0000000000000142
210
0
220
0
230
1
100
AcDbArc
50
180
51
269.99999999999949
0
ARC
5
148
100
AcDbEntity
8
0
100
AcDbCircle
10
11.000000149011615
20
159.00000238418579
30
0
40
0.99999999999999645
210
0
220
0
230
1
100
AcDbArc
50
90.000000000000199
51
180
0
ARC
5
149
100
AcDbEntity
8
0
100
AcDbCircle
10
11.000000149011617
20
159.00000235438347
30
0
40
0.99999999999999645
210
0
220
0
230
1
100
AcDbArc
50
180
51
270.00000000000051
0
ARC
5
150
100
AcDbEntity
8
0
100
AcDbCircle
10
11.000000149011615
20
154.00000230967999
30
0
40
0.99999999999999645
210
0
220
0
230
1
100
AcDbArc
50
90.000000000000199
51
180
0
ARC
5
151
100
AcDbEntity
8
0
100
AcDbCircle
10
11.000000149011617
20
154.00000227987766
30
0
40
0.99999999999999645
210
0
220
0
230
1
100
AcDbArc
50
180
51
270.00000000000051
0
ARC
5
152
100
AcDbEntity
8
0
100
AcDbCircle
10
55.000000834465027
20
154.00000230967999
30
0
40
0.99999999999999645
210
0
220
-0
230
1
100
AcDbArc
50
0
51
90
0
ARC
5
153
100
AcDbEntity
8
0
100
AcDbCircle
10
55.000000834465027
20
154.00000227987766
30
0
40
0.99999999999999645
210
-0
220
0
230
1
100
AcDbArc
50
-90
51
0
0
ARC
5
154
100
AcDbEntity
8
0
100
AcDbCircle
10
55.000000834465027
20
159.00000235438347
30
0
40
0.99999999999999645
210
-0
220
0
230
1
100
AcDbArc
50
-90
51
0
0
ARC
5
155
100
AcDbEntity
8
0
100
AcDbCircle
10
55.000000834465027
20
159.00000238418579
30
0
40
0.99999999999999645
210
0
220
-0
230
1
100
AcDbArc
50
0
51
90
0
ARC
5
156
100
AcDbEntity
8
0
100
AcDbCircle
10
55.000000834465013
20
164.00000242888927
30
0
40
1.0000000000000142
210
-0
220
0
230
1
100
AcDbArc
50
-89.99999999999919
51
0
0
ARC
5
157
100
AcDbEntity
8
0
100
AcDbCircle
10
55.000000834465013
20
164.0000024586916
30
0
40
1.0000000000000142
210
0
220
0
230
1
100
AcDbArc
50
0
51
89.99999999999919
0
CIRCLE
5
158
100
AcDbEntity
8
0
100
AcDbCircle
10
89.49999799951911
20
80.999998189508915
30
0
40
1.5000000000000036
210
0
220
0
230
1
0
CIRCLE
5
159
100
AcDbEntity
8
0
100
AcDbCircle
10
114.49999744072556
20
80.999998189508915
30
0
40
1.5000000000000036
210
0
220
0
230
1
0
ENDSEC
0
SECTION
2
OBJECTS
0
DICTIONARY
5
C
100
AcDbDictionary
3
ACAD_GROUP
350
D
3
ACAD_MLINESTYLE
350
17
0
DICTIONARY
5
D
100
AcDbDictionary
0
DICTIONARY
5
1A
330
C
100
AcDbDictionary
0
DICTIONARY
5
17
100
AcDbDictionary
0
ENDSEC
0
EOF
